<?xml version="1.0" encoding="UTF-8" standalone="no"?>
<!DOCTYPE svg PUBLIC "-//W3C//DTD SVG 1.1//EN" "http://www.w3.org/Graphics/SVG/1.1/DTD/svg11.dtd">
<svg xmlns="http://www.w3.org/2000/svg" version="1.1" viewBox="0.00 0.00 383.00 298.00">
<path fill="#40e0ee" d="
  M 200.56 14.56
  Q 208.77 11.51 214.37 17.66
  C 219.34 23.12 217.46 30.61 212.87 35.68
  C 207.23 41.91 199.08 46.07 191.47 49.93
  A 3.48 3.47 -28.1 0 1 186.88 48.54
  Q 183.87 43.22 181.09 36.84
  C 178.42 30.69 176.12 23.23 178.25 16.66
  C 181.08 7.95 192.29 5.63 198.46 12.47
  C 198.98 13.05 199.23 13.66 199.66 14.27
  Q 200.00 14.77 200.56 14.56
  Z
  M 188.35 15.60
  C 178.84 17.81 188.59 37.14 191.27 41.82
  Q 191.46 42.15 191.81 41.97
  C 196.98 39.31 210.98 31.94 210.36 25.01
  Q 210.05 21.42 206.25 20.55
  C 204.02 20.04 202.26 21.62 200.80 23.08
  C 198.67 25.22 195.32 24.33 194.66 21.32
  C 194.33 19.83 194.22 18.39 193.22 17.18
  Q 191.34 14.90 188.35 15.60
  Z"
/>
<path fill="#40e0ee" d="
  M 274.76 101.24
  Q 265.43 102.62 256.31 104.06
  Q 253.87 104.45 252.54 102.11
  Q 252.35 101.79 252.35 101.40
  Q 252.28 98.24 255.40 97.71
  Q 270.23 95.21 284.72 93.68
  Q 285.27 93.62 285.15 93.08
  Q 282.55 80.96 278.27 70.60
  C 276.23 65.66 271.14 60.35 266.57 57.85
  Q 250.16 48.85 233.37 52.84
  C 220.06 56.00 209.76 71.01 204.58 83.26
  C 204.08 84.45 202.64 85.07 201.41 84.90
  Q 197.82 84.38 193.52 86.20
  Q 192.15 86.78 192.92 88.05
  Q 203.51 105.36 209.95 124.06
  C 212.47 131.38 214.65 140.40 213.68 147.71
  Q 211.45 164.57 193.47 168.48
  C 184.38 170.45 174.12 167.60 171.38 157.91
  C 169.78 152.26 170.52 144.99 171.25 139.17
  Q 174.05 116.79 180.81 95.09
  Q 182.15 90.79 184.09 86.68
  Q 184.33 86.17 184.04 85.70
  Q 175.69 72.42 165.80 60.51
  Q 162.86 56.97 159.23 53.71
  Q 158.00 52.61 156.53 52.66
  Q 155.94 52.68 155.55 53.12
  C 150.47 58.79 148.83 67.61 147.86 74.94
  Q 147.51 77.54 145.04 77.97
  Q 131.00 80.42 116.91 82.80
  Q 114.43 83.22 113.41 80.97
  Q 109.78 72.92 102.06 68.52
  C 95.43 64.75 92.45 73.52 91.64 78.10
  Q 88.27 97.06 85.65 119.91
  A 0.46 0.45 -80.6 0 0 85.99 120.40
  Q 91.70 121.68 96.35 124.85
  Q 98.95 126.63 97.27 129.29
  Q 97.11 129.55 96.89 129.76
  Q 95.05 131.56 92.86 130.23
  Q 89.36 128.10 84.99 126.59
  Q 84.76 126.51 84.73 126.75
  L 83.65 136.19
  Q 83.63 136.36 83.80 136.39
  Q 89.46 137.19 94.66 140.65
  Q 97.12 142.28 96.07 145.04
  Q 95.90 145.50 95.54 145.85
  Q 94.03 147.34 92.13 146.40
  L 84.86 142.81
  Q 82.93 141.86 82.68 144.00
  L 80.55 162.58
  Q 80.24 165.26 77.57 165.61
  Q 77.06 165.67 76.57 165.46
  Q 73.80 164.26 74.15 161.27
  L 76.31 142.77
  A 0.39 0.39 0.0 0 0 75.87 142.34
  Q 71.05 142.92 66.59 144.25
  Q 64.26 144.95 62.87 142.95
  Q 62.05 141.76 62.54 140.06
  A 2.60 2.59 88.9 0 1 64.21 138.32
  Q 70.52 136.18 76.46 135.94
  Q 77.08 135.92 77.15 135.30
  L 78.34 125.68
  A 0.70 0.69 -85.9 0 0 77.67 124.90
  L 64.70 124.63
  Q 61.55 124.57 61.41 121.43
  Q 61.39 121.10 61.47 120.77
  Q 62.00 118.41 64.41 118.26
  Q 71.69 117.83 78.52 118.79
  Q 79.18 118.89 79.26 118.22
  Q 81.03 103.49 83.21 89.24
  C 84.65 79.81 85.36 69.39 91.63 64.03
  C 101.07 55.96 112.87 67.31 117.72 75.52
  A 1.01 1.00 -20.0 0 0 118.76 76.00
  L 141.02 72.23
  A 1.17 1.16 89.7 0 0 141.97 71.26
  C 142.96 64.64 144.92 57.71 148.53 51.97
  C 150.81 48.35 155.59 44.06 159.99 46.89
  C 163.06 48.87 165.87 51.34 168.33 54.04
  Q 179.65 66.49 188.49 80.91
  Q 188.88 81.54 189.52 81.18
  Q 194.23 78.55 198.95 78.64
  Q 199.66 78.65 199.97 78.01
  C 205.94 65.48 214.96 53.50 227.31 48.17
  Q 232.55 45.91 238.98 45.48
  C 258.28 44.19 278.52 52.02 285.52 71.24
  Q 289.74 82.81 291.64 92.72
  Q 291.75 93.30 292.33 93.24
  Q 301.18 92.40 309.04 92.67
  Q 318.61 93.00 319.60 101.22
  Q 320.21 106.27 319.37 112.44
  C 317.37 127.09 311.48 146.46 298.69 154.48
  Q 298.11 154.85 298.52 155.40
  C 302.83 161.29 304.37 173.16 298.55 179.29
  Q 296.08 181.89 291.98 182.12
  Q 284.33 182.53 279.97 177.13
  C 277.76 174.40 277.42 170.88 275.41 168.05
  C 271.67 162.81 266.05 160.45 260.33 157.70
  Q 256.16 155.70 251.28 150.52
  Q 240.58 139.18 233.96 126.54
  A 0.31 0.31 0.0 0 0 233.40 126.56
  Q 232.79 128.07 231.33 128.88
  Q 229.98 129.64 228.69 128.78
  Q 225.81 126.87 227.58 123.75
  Q 231.88 116.17 240.21 112.82
  Q 242.96 111.71 244.29 114.37
  Q 244.47 114.74 244.52 115.16
  Q 244.82 117.62 242.60 118.71
  L 239.16 120.40
  A 0.84 0.83 65.9 0 0 238.76 121.46
  Q 239.40 123.04 240.18 124.46
  Q 246.61 136.17 256.16 146.27
  Q 265.92 156.60 279.82 154.37
  Q 280.42 154.27 280.82 153.81
  C 286.44 147.32 289.13 138.76 290.25 130.37
  Q 290.33 129.78 289.74 129.66
  C 275.90 127.02 273.35 113.86 275.27 101.76
  Q 275.36 101.15 274.76 101.24
  Z
  M 188.82 93.61
  A 0.28 0.28 0.0 0 0 188.35 93.58
  Q 187.67 94.50 187.33 95.59
  Q 181.14 115.66 178.14 136.01
  Q 176.69 145.88 177.13 153.81
  C 177.51 160.60 183.52 163.14 189.57 162.53
  C 195.41 161.94 201.83 159.61 204.71 154.39
  C 209.13 146.37 206.85 135.72 204.17 127.37
  Q 198.90 110.96 188.82 93.61
  Z
  M 290.60 151.05
  Q 290.34 151.56 290.87 151.33
  C 299.91 147.42 304.50 139.81 308.06 130.91
  A 0.34 0.34 0.0 0 0 307.74 130.44
  L 297.28 130.49
  Q 296.71 130.49 296.63 131.06
  Q 295.32 141.39 290.60 151.05
  Z
  M 289.74 159.45
  C 291.63 162.09 296.38 171.28 291.36 173.13
  C 289.29 173.89 287.48 171.92 287.20 170.02
  Q 286.48 165.02 282.93 161.07
  Q 282.56 160.67 282.02 160.70
  L 279.10 160.90
  A 0.52 0.52 0.0 0 0 278.75 161.76
  C 281.01 164.31 282.71 167.16 283.67 170.39
  Q 284.98 174.76 289.54 175.66
  C 297.19 177.16 296.24 166.61 295.07 162.43
  Q 294.41 160.09 292.64 158.34
  Q 292.23 157.95 291.70 158.12
  L 290.01 158.65
  A 0.52 0.52 0.0 0 0 289.74 159.45
  Z"
/>
<ellipse fill="#40e0ee" cx="0.00" cy="0.00" transform="translate(263.97,80.59) rotate(90.2)" rx="9.52" ry="6.01"/>
<ellipse fill="#40e0ee" cx="0.00" cy="0.00" transform="translate(235.72,81.26) rotate(90.1)" rx="9.53" ry="6.00"/>
<ellipse fill="#40e0ee" cx="0.00" cy="0.00" transform="translate(163.99,98.14) rotate(80.8)" rx="8.88" ry="4.37"/>
<path fill="#40e0ee" d="
  M 134.26 114.65
  C 133.68 115.30 133.17 116.15 132.51 116.71
  Q 128.69 119.96 124.36 119.37
  C 117.81 118.49 115.98 108.83 116.17 103.35
  Q 116.26 100.82 118.61 99.92
  Q 119.13 99.72 119.65 99.82
  Q 122.56 100.37 122.55 103.33
  Q 122.54 107.07 123.48 110.80
  C 124.15 113.46 126.68 113.47 128.26 111.77
  C 129.70 110.24 129.78 108.76 130.13 106.83
  C 130.48 104.91 132.61 103.91 134.36 104.62
  C 137.38 105.87 138.21 111.57 142.78 109.71
  Q 143.26 109.52 143.46 109.05
  C 144.78 106.04 143.26 101.90 142.26 98.92
  Q 141.50 96.67 143.12 94.93
  Q 143.55 94.48 144.19 94.43
  Q 147.15 94.19 148.27 96.94
  C 151.16 104.03 152.21 117.07 140.45 116.55
  C 138.56 116.47 136.80 115.48 135.23 114.51
  A 0.75 0.74 36.5 0 0 134.26 114.65
  Z"
/>
<ellipse fill="#40e0ee" cx="0.00" cy="0.00" transform="translate(103.07,107.69) rotate(80.9)" rx="8.88" ry="4.35"/>
<circle fill="#40e0ee" cx="269.11" cy="128.77" r="3.16"/>
<circle fill="#40e0ee" cx="278.10" cy="137.33" r="3.16"/>
<circle fill="#40e0ee" cx="266.15" cy="140.45" r="3.16"/>
<path fill="#ebffe4" d="
  M 146.58 231.81
  L 130.11 231.88
  Q 129.54 231.89 129.34 232.42
  L 126.20 240.82
  A 1.74 1.70 -10.0 0 1 125.69 241.53
  Q 123.19 243.54 121.61 242.71
  Q 119.89 241.80 120.27 239.89
  Q 121.71 232.75 125.42 222.64
  Q 129.79 210.74 134.49 199.65
  Q 135.29 197.74 136.85 196.57
  A 2.55 2.54 -41.3 0 1 140.16 196.78
  Q 141.72 198.31 142.62 200.50
  Q 150.68 219.99 155.27 234.75
  Q 155.96 236.98 156.44 239.46
  C 157.30 243.91 152.23 243.86 150.71 240.76
  Q 148.86 236.95 147.45 232.44
  Q 147.25 231.81 146.58 231.81
  Z
  M 144.24 225.50
  Q 144.89 225.52 144.68 224.90
  Q 141.84 216.84 139.28 208.50
  Q 139.03 207.68 138.12 207.70
  A 0.86 0.86 0.0 0 0 137.32 208.29
  L 131.93 224.90
  A 0.47 0.47 0.0 0 0 132.40 225.52
  Q 137.78 225.20 144.24 225.50
  Z"
/>
<path fill="#ebffe4" d="
  M 324.58 231.81
  L 307.98 231.88
  Q 307.37 231.89 307.20 232.47
  Q 305.92 236.89 304.06 240.80
  C 302.39 244.32 297.19 243.58 298.44 238.76
  C 301.91 225.28 307.19 212.07 312.59 199.48
  Q 313.34 197.71 314.90 196.55
  A 2.50 2.49 -40.8 0 1 318.15 196.78
  Q 319.67 198.29 320.49 200.22
  Q 328.32 218.76 333.88 236.71
  Q 334.46 238.57 334.52 240.57
  A 2.34 2.32 0.9 0 1 332.03 242.97
  Q 329.75 242.82 328.76 240.85
  Q 327.07 237.47 325.46 232.45
  Q 325.25 231.81 324.58 231.81
  Z
  M 322.29 225.40
  Q 322.86 225.40 322.67 224.86
  Q 319.93 217.14 317.37 208.70
  Q 317.19 208.09 316.65 207.85
  A 1.00 1.00 0.0 0 0 315.27 208.45
  L 309.96 224.80
  Q 309.76 225.41 310.40 225.41
  L 322.29 225.40
  Z"
/>
<path fill="#ebffe4" d="
  M 16.19 206.95
  C 14.44 211.17 17.96 214.41 21.67 215.43
  C 30.42 217.83 40.54 219.74 38.62 231.87
  C 36.86 242.98 24.20 244.85 15.21 242.61
  Q 11.41 241.66 8.92 239.37
  C 6.98 237.58 6.59 233.10 10.33 233.13
  Q 11.75 233.14 12.76 234.05
  Q 17.29 238.15 25.86 237.10
  C 34.28 236.06 34.05 225.96 26.48 223.61
  Q 21.76 222.14 17.03 220.68
  C 12.87 219.39 9.48 216.21 9.03 211.67
  C 7.82 199.33 19.47 195.71 29.35 197.53
  Q 30.27 197.70 31.16 197.99
  Q 39.55 200.78 37.13 204.97
  A 2.17 2.16 -63.4 0 1 34.42 205.88
  Q 29.97 204.00 25.86 203.53
  C 22.63 203.16 17.61 203.52 16.19 206.95
  Z"
/>
<path fill="#ebffe4" d="
  M 52.85 225.49
  C 53.11 230.11 54.22 236.56 59.79 237.41
  C 66.80 238.49 69.33 234.35 70.42 228.28
  C 71.81 220.48 71.36 211.93 71.25 203.73
  C 71.22 201.17 71.37 196.62 75.23 197.21
  C 77.16 197.50 77.70 199.69 77.76 201.30
  Q 78.15 212.24 77.34 223.45
  C 76.81 230.85 75.34 242.00 66.23 243.64
  C 59.47 244.87 51.70 243.90 48.80 236.93
  Q 46.77 232.05 46.40 225.26
  Q 45.80 214.02 45.95 202.49
  Q 45.98 200.18 46.86 198.25
  A 1.55 1.53 -86.6 0 1 47.77 197.43
  C 52.03 195.98 52.72 200.69 52.62 203.70
  Q 52.24 214.55 52.85 225.49
  Z"
/>
<path fill="#ebffe4" d="
  M 93.03 219.85
  Q 100.02 211.73 107.59 203.21
  C 109.13 201.49 111.50 199.08 113.96 199.58
  A 2.17 2.17 0.0 0 1 115.53 202.57
  Q 114.81 204.25 113.45 205.73
  Q 108.24 211.42 102.83 217.28
  Q 102.42 217.72 102.77 218.21
  Q 109.62 227.82 116.91 238.36
  C 118.07 240.04 118.26 243.72 115.52 243.84
  Q 112.37 243.99 110.63 241.43
  Q 104.42 232.31 98.33 223.23
  Q 97.96 222.66 97.50 223.16
  L 92.75 228.32
  A 1.65 1.63 66.8 0 0 92.31 229.44
  Q 92.33 235.74 91.77 241.17
  A 2.37 2.37 0.0 0 1 89.33 243.29
  Q 89.15 243.28 88.97 243.26
  Q 86.46 242.91 86.35 240.38
  Q 85.41 220.21 86.26 201.20
  Q 86.39 198.28 88.83 197.38
  Q 90.01 196.94 91.34 198.75
  A 3.11 3.06 -65.7 0 1 91.92 200.32
  Q 92.65 210.70 92.43 219.62
  Q 92.40 220.58 93.03 219.85
  Z"
/>
<path fill="#ebffe4" d="
  M 200.82 215.77
  Q 200.41 207.20 201.42 199.81
  A 2.30 2.27 72.2 0 1 202.08 198.50
  Q 203.57 197.01 204.76 197.43
  Q 206.69 198.11 206.81 200.16
  Q 207.85 218.73 206.74 241.35
  A 2.09 2.09 0.0 0 1 204.64 243.34
  Q 204.05 243.34 203.49 243.21
  Q 201.40 242.74 201.25 240.61
  Q 200.67 232.05 200.76 223.27
  Q 200.77 222.74 200.23 222.74
  L 182.58 222.77
  Q 181.93 222.77 181.92 223.42
  L 181.53 240.11
  Q 181.48 242.29 179.49 243.16
  Q 177.90 243.86 176.21 241.41
  A 2.50 2.49 26.4 0 1 175.76 240.08
  Q 175.24 227.39 175.39 209.45
  C 175.41 206.53 175.17 200.24 176.94 198.11
  C 178.61 196.11 181.27 198.04 181.43 200.23
  Q 181.97 207.54 181.86 215.83
  Q 181.85 216.51 182.53 216.48
  Q 191.68 216.00 200.08 216.50
  Q 200.85 216.55 200.82 215.77
  Z"
/>
<path fill="#ebffe4" d="
  M 222.44 216.82
  Q 228.71 216.48 235.61 217.16
  Q 238.25 217.41 238.28 220.07
  L 238.29 220.46
  Q 238.31 222.60 236.18 222.83
  Q 229.39 223.57 222.31 223.22
  Q 221.71 223.19 221.71 223.80
  L 221.75 233.36
  Q 221.77 237.20 225.61 237.20
  L 242.83 237.24
  Q 244.93 237.25 245.30 239.32
  L 245.39 239.84
  Q 245.91 242.73 242.99 243.00
  Q 234.90 243.75 224.20 243.45
  Q 215.90 243.23 215.41 234.69
  Q 214.33 216.00 215.55 203.80
  C 216.02 199.01 219.48 197.54 223.72 197.37
  Q 234.71 196.92 242.76 197.78
  Q 244.91 198.01 245.15 200.16
  Q 245.28 201.39 244.07 202.72
  A 2.32 2.31 20.5 0 1 242.40 203.48
  L 224.63 203.80
  Q 221.60 203.85 221.65 206.88
  L 221.80 216.22
  Q 221.81 216.85 222.44 216.82
  Z"
/>
<path fill="#ebffe4" d="
  M 260.10 230.94
  Q 260.26 231.92 260.61 230.99
  Q 264.90 219.64 269.17 209.84
  A 3.47 3.42 85.4 0 1 270.43 208.34
  C 272.86 206.74 274.53 208.61 275.48 210.66
  Q 280.15 220.71 283.87 230.92
  Q 284.27 232.03 284.43 230.86
  Q 286.52 214.84 289.52 199.99
  Q 290.09 197.14 293.00 197.18
  Q 294.21 197.20 295.12 198.75
  A 2.21 2.19 -56.5 0 1 295.40 200.15
  Q 292.55 220.77 288.12 240.16
  C 287.37 243.42 283.45 243.88 281.71 241.09
  Q 280.42 239.03 279.50 236.68
  Q 275.79 227.18 272.52 219.14
  Q 272.17 218.29 271.81 219.14
  Q 268.42 227.04 264.55 237.10
  Q 263.31 240.34 261.49 242.14
  C 259.53 244.10 256.59 242.51 256.00 240.08
  Q 251.95 223.39 249.06 200.43
  A 2.93 2.91 -8.2 0 1 251.50 197.18
  Q 252.04 197.10 252.58 197.34
  Q 254.74 198.31 255.12 200.64
  L 260.10 230.94
  Z"
/>
<path fill="#ebffe4" d="
  M 366.43 228.57
  Q 366.27 216.22 366.48 203.96
  Q 366.52 201.46 367.22 199.10
  C 368.18 195.86 372.39 197.43 372.51 200.49
  Q 373.26 219.71 372.47 239.75
  Q 372.42 241.03 371.90 242.10
  C 371.06 243.84 368.63 243.48 367.44 242.40
  Q 365.65 240.77 361.33 233.98
  Q 354.04 222.54 346.90 211.86
  Q 346.22 210.85 346.24 212.07
  Q 346.41 227.23 345.68 240.82
  Q 345.56 242.96 343.44 243.26
  Q 342.61 243.38 341.75 243.10
  A 2.40 2.39 -82.0 0 1 340.12 240.93
  Q 339.26 219.06 339.79 201.80
  Q 339.83 200.28 340.35 198.80
  Q 340.83 197.45 342.26 197.37
  C 344.98 197.21 348.40 201.86 349.88 203.88
  Q 357.44 214.21 365.91 228.71
  Q 366.44 229.63 366.43 228.57
  Z"
/>
<path fill="#ebffe4" d="
  M 185.08 273.44
  C 186.15 280.72 192.91 283.27 199.06 279.97
  Q 200.74 279.06 201.61 280.76
  Q 202.08 281.69 201.44 283.01
  A 2.05 1.99 0.8 0 1 200.39 284.00
  C 175.30 294.24 172.11 252.09 196.10 256.37
  C 199.23 256.92 201.92 258.94 202.19 262.39
  Q 202.39 264.91 199.25 264.96
  A 1.59 1.54 63.5 0 1 198.23 264.60
  Q 197.44 263.93 197.46 262.93
  C 197.49 261.40 195.22 260.27 193.95 260.16
  C 185.90 259.44 184.16 267.13 185.08 273.44
  Z"
/>
<path fill="#ebffe4" d="
  M 104.49 277.25
  L 104.48 283.75
  Q 104.48 284.98 103.25 284.99
  L 101.00 285.00
  Q 99.73 285.01 99.73 283.75
  L 99.74 257.79
  A 1.21 1.21 0.0 0 1 100.88 256.58
  Q 106.73 256.21 111.41 256.76
  C 119.85 257.76 122.43 268.32 116.61 273.78
  C 113.41 276.78 109.52 277.14 105.15 276.66
  Q 104.49 276.59 104.49 277.25
  Z
  M 104.51 260.89
  L 104.45 272.39
  A 0.42 0.42 0.0 0 0 104.87 272.82
  L 108.53 272.83
  A 6.18 5.84 0.3 0 0 114.74 267.03
  L 114.74 266.37
  A 6.18 5.84 0.3 0 0 108.59 260.49
  L 104.93 260.48
  A 0.42 0.42 0.0 0 0 104.51 260.89
  Z"
/>
<path fill="#ebffe4" d="
  M 130.47 268.76
  L 140.09 268.74
  A 0.74 0.74 0.0 0 1 140.83 269.48
  L 140.85 272.12
  A 0.74 0.74 0.0 0 1 140.10 272.87
  L 130.47 272.84
  A 0.74 0.74 0.0 0 0 129.73 273.58
  L 129.75 280.14
  A 0.74 0.74 0.0 0 0 130.49 280.88
  L 142.77 280.89
  A 0.74 0.74 0.0 0 1 143.51 281.63
  L 143.51 284.27
  A 0.74 0.74 0.0 0 1 142.77 285.01
  L 125.86 284.98
  A 0.74 0.74 0.0 0 1 125.12 284.24
  L 125.12 257.25
  A 0.74 0.74 0.0 0 1 125.86 256.51
  L 142.70 256.48
  A 0.74 0.74 0.0 0 1 143.44 257.22
  L 143.45 259.88
  A 0.74 0.74 0.0 0 1 142.71 260.62
  L 130.49 260.61
  A 0.74 0.74 0.0 0 0 129.75 261.35
  L 129.73 268.02
  A 0.74 0.74 0.0 0 0 130.47 268.76
  Z"
/>
<path fill="#ebffe4" d="
  M 159.44 261.36
  L 159.44 284.09
  A 0.87 0.87 0.0 0 1 158.58 284.96
  L 155.58 284.97
  A 0.87 0.87 0.0 0 1 154.70 284.10
  L 154.72 261.37
  A 0.87 0.87 0.0 0 0 153.84 260.49
  L 147.69 260.53
  A 0.87 0.87 0.0 0 1 146.81 259.65
  L 146.82 257.37
  A 0.87 0.87 0.0 0 1 147.69 256.50
  L 166.45 256.48
  A 0.87 0.87 0.0 0 1 167.32 257.33
  L 167.37 259.65
  A 0.87 0.87 0.0 0 1 166.49 260.54
  L 160.32 260.49
  A 0.87 0.87 0.0 0 0 159.44 261.36
  Z"
/>
<path fill="#ebffe4" d="
  M 210.85 278.71
  L 209.08 283.73
  Q 208.63 285.00 207.28 285.00
  L 205.50 285.00
  Q 203.83 284.99 204.40 283.43
  Q 209.03 270.71 213.78 258.24
  Q 214.43 256.54 216.22 256.31
  Q 219.19 255.91 220.30 258.69
  Q 224.98 270.40 230.26 283.71
  Q 230.76 284.97 229.41 284.98
  L 226.84 285.01
  A 1.44 1.41 78.9 0 1 225.50 284.09
  L 223.43 278.71
  Q 223.24 278.20 222.70 278.20
  L 211.56 278.21
  Q 211.03 278.21 210.85 278.71
  Z
  M 212.64 273.75
  A 0.31 0.31 0.0 0 0 212.94 274.16
  L 221.21 274.13
  A 0.31 0.31 0.0 0 0 221.50 273.72
  L 217.32 262.30
  A 0.31 0.31 0.0 0 0 216.74 262.30
  L 212.64 273.75
  Z"
/>
<path fill="#ebffe4" d="
  M 240.75 275.02
  L 240.75 284.00
  Q 240.74 284.99 239.75 285.00
  L 237.37 285.00
  A 1.26 1.26 0.0 0 1 236.11 283.74
  L 236.12 257.79
  A 1.26 1.26 0.0 0 1 237.33 256.53
  Q 242.79 256.34 247.90 256.63
  C 261.62 257.39 258.42 275.20 246.97 274.51
  Q 246.07 274.45 246.68 275.11
  C 249.43 278.08 252.43 281.84 256.86 280.75
  Q 257.36 280.63 257.67 281.03
  C 258.59 282.19 258.87 283.94 257.19 284.67
  C 250.45 287.60 244.79 279.29 241.30 274.84
  Q 240.76 274.14 240.75 275.02
  Z
  M 240.74 261.34
  L 240.76 270.24
  A 0.85 0.85 0.0 0 0 241.61 271.09
  L 246.06 271.08
  A 6.18 5.02 -0.1 0 0 252.23 266.05
  L 252.23 265.49
  A 6.18 5.02 -0.1 0 0 246.04 260.48
  L 241.59 260.49
  A 0.85 0.85 0.0 0 0 240.74 261.34
  Z"
/>
<path fill="#ebffe4" d="
  M 269.24 273.57
  L 269.26 280.14
  A 0.74 0.74 0.0 0 0 270.00 280.88
  L 282.25 280.89
  A 0.74 0.74 0.0 0 1 282.99 281.63
  L 282.98 284.26
  A 0.74 0.74 0.0 0 1 282.24 285.00
  L 265.28 284.98
  A 0.74 0.74 0.0 0 1 264.54 284.24
  L 264.55 257.25
  A 0.74 0.74 0.0 0 1 265.29 256.51
  L 282.20 256.48
  A 0.74 0.74 0.0 0 1 282.94 257.23
  L 282.93 259.89
  A 0.74 0.74 0.0 0 1 282.18 260.63
  L 269.99 260.60
  A 0.74 0.74 0.0 0 0 269.25 261.34
  L 269.26 268.01
  A 0.74 0.74 0.0 0 0 270.00 268.75
  L 279.63 268.75
  A 0.74 0.74 0.0 0 1 280.37 269.49
  L 280.36 272.13
  A 0.74 0.74 0.0 0 1 279.62 272.87
  L 269.98 272.83
  A 0.74 0.74 0.0 0 0 269.24 273.57
  Z"
/>
<path fill="#40e0ee" d="
  M 296.05 274.43
  Q 293.78 272.59 291.68 271.38
  Q 289.93 270.37 291.93 270.08
  Q 294.50 269.70 297.05 269.64
  A 0.65 0.65 0.0 0 0 297.69 269.02
  Q 297.80 266.48 298.90 263.96
  A 0.21 0.21 0.0 0 1 299.28 263.95
  L 301.71 268.84
  Q 301.97 269.38 302.57 269.30
  L 307.14 268.64
  Q 308.14 268.50 307.45 269.23
  L 304.18 272.69
  A 1.71 1.70 56.3 0 0 303.83 274.45
  L 305.07 277.76
  Q 305.51 278.94 304.46 278.25
  L 301.11 276.06
  Q 300.55 275.69 300.13 276.22
  L 296.54 280.83
  Q 295.63 282.01 295.57 280.52
  Q 295.47 277.96 296.30 275.25
  A 0.78 0.77 28.4 0 0 296.05 274.43
  Z"
/>
<path fill="#40e0ee" d="
  M 82.74 276.11
  L 78.42 281.46
  Q 77.67 282.38 77.85 281.21
  L 78.76 275.18
  Q 78.83 274.71 78.48 274.40
  Q 76.72 272.82 74.66 271.59
  Q 72.44 270.27 75.01 270.03
  L 79.36 269.62
  Q 80.05 269.56 80.15 268.88
  L 80.78 264.98
  Q 81.11 262.92 82.08 264.77
  L 84.05 268.51
  A 1.42 1.42 0.0 0 0 85.52 269.26
  L 89.81 268.61
  Q 90.86 268.45 90.12 269.21
  L 86.59 272.80
  Q 86.22 273.18 86.34 273.69
  Q 86.66 275.09 87.16 276.18
  Q 88.76 279.72 85.66 277.37
  Q 84.48 276.48 83.32 275.97
  Q 82.98 275.82 82.74 276.11
  Z"
/>
</svg>
